<?xml version="1.0"?><svg width="640" height="480" xmlns="http://www.w3.org/2000/svg">
 <title>Man silhouette</title>
 <g>
  <title>Layer 1</title>
  <g id="svg_3">
   <path id="svg_1" d="m251.030228,136.790359c14.424759,0 26.085861,-11.200279 26.085861,-25.129311c0,-13.842712 -11.661102,-25.10305 -26.085861,-25.10305c-14.335464,0 -25.996552,11.260338 -25.996552,25.10305c0.003906,13.929031 11.665009,25.129311 25.996552,25.129311z" fill="#231F20"/>
   <path id="svg_2" d="m215.83696,380.531555c0,7.799683 6.436951,14.105438 14.514221,14.105438c8.046127,0 14.607452,-6.305756 14.607452,-14.105438l0,-118.203491l12.236404,0l0,118.203491c0,7.799683 6.561279,14.105438 14.607483,14.105438c8.07724,0 14.545288,-6.305756 14.545288,-14.105438l0.089386,-203.800781l12.146973,0l0,75.128967c0,15.130096 20.375854,15.130096 20.375854,0l0,-76.769241c0,-16.684067 -13.453094,-32.989014 -33.677277,-32.989014l-68.994843,-0.086334c-18.494553,0 -33.311905,14.544601 -33.311905,32.60994l0,77.238373c0,14.953705 20.496307,14.953705 20.496307,0l0,-75.13269l12.360794,0l0,203.800781l0.00386,0z" fill="#231F20"/>
  </g>
 </g>
</svg>